<svg xmlns="http://www.w3.org/2000/svg" width="40" height="40" fill="none"><g clip-path="url(#a)"><path fill="#fff" d="M40 20.122c0-11.045-8.955-20-20-20s-20 8.955-20 20C0 30.105 7.313 38.38 16.875 39.88V25.904h-5.078V20.12h5.078v-4.403c0-5.012 2.987-7.782 7.555-7.782 2.187 0 4.477.392 4.477.392v4.922h-2.524c-2.485 0-3.26 1.541-3.26 3.123v3.75h5.547l-.887 5.783h-4.66V39.88C32.687 38.38 40 30.104 40 20.122Z"/></g><defs><clipPath id="a"><path fill="#fff" d="M0 0h40v40H0z"/></clipPath></defs></svg>