<svg xmlns="http://www.w3.org/2000/svg" width="20" height="20" fill="none"><g clip-path="url(#a)"><path fill="url(#b)" d="M20 10.061c0-5.522-4.477-10-10-10-5.522 0-10 4.478-10 10 0 4.992 3.657 9.128 8.438 9.878v-6.987h-2.54V10.06h2.54V7.86c0-2.506 1.493-3.891 3.777-3.891 1.093 0 2.238.196 2.238.196v2.46h-1.261c-1.243 0-1.63.771-1.63 1.562v1.875h2.773l-.443 2.892h-2.33v6.987C16.343 19.19 20 15.052 20 10.061Z"/></g><defs><linearGradient id="b" x1="10" x2="10" y1=".061" y2="19.94" gradientUnits="userSpaceOnUse"><stop stop-color="#FFBF00"/><stop offset="1" stop-color="#F2A60C"/></linearGradient><clipPath id="a"><path fill="#fff" d="M0 0h20v20H0z"/></clipPath></defs></svg>