<svg xmlns="http://www.w3.org/2000/svg" width="40" height="40" fill="none"><g clip-path="url(#a)"><path fill="#fff" d="M20 0c-5.433 0-6.112.025-8.245.12-2.13.1-3.58.435-4.855.93a9.794 9.794 0 0 0-3.543 2.307A9.759 9.759 0 0 0 1.05 6.9C.555 8.175.218 9.625.12 11.755.02 13.888 0 14.567 0 20s.025 6.112.12 8.245c.1 2.128.435 3.58.93 4.855a9.809 9.809 0 0 0 2.307 3.543A9.781 9.781 0 0 0 6.9 38.95c1.277.493 2.727.832 4.855.93 2.133.1 2.812.12 8.245.12s6.112-.025 8.245-.12c2.128-.1 3.58-.437 4.855-.93a9.83 9.83 0 0 0 3.543-2.307A9.768 9.768 0 0 0 38.95 33.1c.493-1.275.832-2.727.93-4.855.1-2.133.12-2.812.12-8.245s-.025-6.112-.12-8.245c-.1-2.128-.437-3.582-.93-4.855a9.816 9.816 0 0 0-2.307-3.543A9.746 9.746 0 0 0 33.1 1.05C31.825.555 30.373.218 28.245.12 26.112.02 25.433 0 20 0Zm0 3.6c5.338 0 5.975.027 8.083.118 1.95.092 3.009.415 3.712.692.937.362 1.6.795 2.303 1.493a6.18 6.18 0 0 1 1.494 2.302c.273.703.6 1.762.688 3.712.095 2.11.117 2.743.117 8.083s-.025 5.975-.124 8.083c-.101 1.95-.426 3.009-.701 3.712-.374.937-.799 1.6-1.499 2.303-.698.699-1.373 1.132-2.3 1.494-.7.273-1.775.6-3.725.688-2.123.095-2.748.117-8.098.117-5.352 0-5.977-.025-8.098-.124-1.952-.101-3.027-.426-3.727-.701-.948-.374-1.6-.799-2.298-1.499-.702-.698-1.15-1.373-1.5-2.3-.275-.7-.599-1.775-.7-3.725-.075-2.1-.102-2.748-.102-8.073 0-5.327.027-5.977.102-8.102.101-1.95.425-3.023.7-3.723.35-.95.798-1.6 1.5-2.302.698-.698 1.35-1.148 2.298-1.496.7-.277 1.752-.602 3.702-.702 2.125-.075 2.75-.1 8.098-.1L20 3.6Zm0 6.13c-5.675 0-10.27 4.6-10.27 10.27 0 5.675 4.6 10.27 10.27 10.27 5.675 0 10.27-4.6 10.27-10.27 0-5.675-4.6-10.27-10.27-10.27Zm0 16.937A6.665 6.665 0 0 1 13.333 20 6.665 6.665 0 0 1 20 13.333 6.665 6.665 0 0 1 26.667 20 6.665 6.665 0 0 1 20 26.667ZM33.077 9.325c0 1.325-1.077 2.4-2.4 2.4a2.402 2.402 0 0 1-2.4-2.4 2.401 2.401 0 0 1 2.4-2.398 2.401 2.401 0 0 1 2.4 2.398Z"/></g><defs><clipPath id="a"><path fill="#fff" d="M0 0h40v40H0z"/></clipPath></defs></svg>